<svg width="36" height="32" viewBox="0 0 36 32" fill="none" xmlns="http://www.w3.org/2000/svg">
<g filter="url(#filter0_i_301_3428)">
<path d="M22.8936 3.30806C23.4988 2.25173 23.137 0.902529 22.0856 0.294548C21.0341 -0.313433 19.6912 0.0500316 19.086 1.10637L18.0305 2.94884L16.975 1.10637C16.3698 0.0500316 15.0269 -0.313433 13.9754 0.294548C12.924 0.902529 12.5622 2.25173 13.1674 3.30806L15.496 7.37285L8.13049 20.2298H2.19661C0.983455 20.2298 0 21.2178 0 22.4366C0 23.6554 0.983455 24.6435 2.19661 24.6435H22.8649C23.046 24.1651 23.2368 23.3443 23.0339 22.5899C22.7288 21.4558 21.6 20.2298 19.7085 20.2298H13.1994L22.8936 3.30806Z" fill="url(#paint0_linear_301_3428)"/>
<path d="M22.8936 3.30806C23.4988 2.25173 23.137 0.902529 22.0856 0.294548C21.0341 -0.313433 19.6912 0.0500316 19.086 1.10637L18.0305 2.94884L16.975 1.10637C16.3698 0.0500316 15.0269 -0.313433 13.9754 0.294548C12.924 0.902529 12.5622 2.25173 13.1674 3.30806L15.496 7.37285L8.13049 20.2298H2.19661C0.983455 20.2298 0 21.2178 0 22.4366C0 23.6554 0.983455 24.6435 2.19661 24.6435H22.8649C23.046 24.1651 23.2368 23.3443 23.0339 22.5899C22.7288 21.4558 21.6 20.2298 19.7085 20.2298H13.1994L22.8936 3.30806Z" fill="black" fill-opacity="0.6"/>
<path d="M9.27281 27.0838C8.89803 26.6657 8.05833 25.9975 7.32203 25.7775C6.19934 25.4422 5.34825 25.6526 4.91885 25.8359L3.28264 28.6919C2.67748 29.7483 3.03926 31.0975 4.0907 31.7055C5.14213 32.3134 6.48507 31.95 7.09024 30.8936L9.27281 27.0838Z" fill="url(#paint1_linear_301_3428)"/>
<path d="M9.27281 27.0838C8.89803 26.6657 8.05833 25.9975 7.32203 25.7775C6.19934 25.4422 5.34825 25.6526 4.91885 25.8359L3.28264 28.6919C2.67748 29.7483 3.03926 31.0975 4.0907 31.7055C5.14213 32.3134 6.48507 31.95 7.09024 30.8936L9.27281 27.0838Z" fill="black" fill-opacity="0.6"/>
<path d="M30.4591 24.6435H33.8034C35.0165 24.6435 36 23.6554 36 22.4366C36 21.2178 35.0165 20.2298 33.8034 20.2298H27.9305L21.315 8.68216C20.8236 9.15134 19.8814 10.35 19.739 11.7089C19.5559 13.456 19.8305 14.9272 20.6542 16.3678C23.4236 21.2112 26.1973 26.0525 28.9708 30.8936C29.5759 31.95 30.9189 32.3134 31.9703 31.7055C33.0218 31.0975 33.3835 29.7483 32.7784 28.6919L30.4591 24.6435Z" fill="url(#paint2_linear_301_3428)"/>
<path d="M30.4591 24.6435H33.8034C35.0165 24.6435 36 23.6554 36 22.4366C36 21.2178 35.0165 20.2298 33.8034 20.2298H27.9305L21.315 8.68216C20.8236 9.15134 19.8814 10.35 19.739 11.7089C19.5559 13.456 19.8305 14.9272 20.6542 16.3678C23.4236 21.2112 26.1973 26.0525 28.9708 30.8936C29.5759 31.95 30.9189 32.3134 31.9703 31.7055C33.0218 31.0975 33.3835 29.7483 32.7784 28.6919L30.4591 24.6435Z" fill="black" fill-opacity="0.6"/>
</g>
<path d="M16.8851 3.605L18.0305 5.60428L19.1759 3.605L20.2314 1.76253C20.4746 1.33802 21.0088 1.19671 21.4248 1.43726C21.8444 1.67991 21.9935 2.22382 21.7483 2.6519L12.054 19.5736L10.9219 21.5498H13.1994H19.7085C20.951 21.5498 21.5953 22.3233 21.7592 22.9328C21.7891 23.0441 21.8036 23.1759 21.8008 23.3235H2.19661C1.71825 23.3235 1.32 22.9322 1.32 22.4366C1.32 21.941 1.71825 21.5498 2.19661 21.5498H8.13049H8.89555L9.27585 20.8859L16.6414 8.02902L17.0173 7.37285L16.6414 6.71669L14.3127 2.6519C14.0675 2.22382 14.2166 1.67991 14.6362 1.43726L13.9935 0.32571L14.6362 1.43726C15.0522 1.19671 15.5864 1.33802 15.8296 1.76253L16.975 1.10637L15.8296 1.76253L16.8851 3.605ZM6.94426 27.0423C7.10258 27.0896 7.3297 27.203 7.58489 27.3747L5.94488 30.2375C5.70168 30.662 5.16746 30.8033 4.75146 30.5627C4.33183 30.3201 4.18276 29.7762 4.428 29.3481L5.80295 26.9481C6.07421 26.9036 6.46175 26.8982 6.94426 27.0423ZM21.0518 11.8465C21.0756 11.6194 21.1362 11.3915 21.2199 11.1715L26.7852 20.8859L27.1655 21.5498H27.9305H33.8034C34.2817 21.5498 34.68 21.941 34.68 22.4366C34.68 22.9322 34.2817 23.3235 33.8034 23.3235H30.4591H28.1816L29.3137 25.2996L31.633 29.3481C31.8782 29.7762 31.7292 30.3201 31.3096 30.5627C30.8935 30.8033 30.3593 30.662 30.1161 30.2375L29.8029 29.6907C27.1338 25.0317 24.4649 20.3731 21.8001 15.7126L21.8001 15.7126C21.1279 14.537 20.8945 13.3481 21.0518 11.8465Z" stroke="url(#paint3_linear_301_3428)" stroke-width="2.64"/>
<defs>
<filter id="filter0_i_301_3428" x="-2.62" y="-1.62" width="38.62" height="33.62" filterUnits="userSpaceOnUse" color-interpolation-filters="sRGB">
<feFlood flood-opacity="0" result="BackgroundImageFix"/>
<feBlend mode="normal" in="SourceGraphic" in2="BackgroundImageFix" result="shape"/>
<feColorMatrix in="SourceAlpha" type="matrix" values="0 0 0 0 0 0 0 0 0 0 0 0 0 0 0 0 0 0 127 0" result="hardAlpha"/>
<feOffset dx="-2.62" dy="-1.62"/>
<feGaussianBlur stdDeviation="2.32"/>
<feComposite in2="hardAlpha" operator="arithmetic" k2="-1" k3="1"/>
<feColorMatrix type="matrix" values="0 0 0 0 0.980392 0 0 0 0 0.980392 0 0 0 0 0.980392 0 0 0 0.22 0"/>
<feBlend mode="normal" in2="shape" result="effect1_innerShadow_301_3428"/>
</filter>
<linearGradient id="paint0_linear_301_3428" x1="36" y1="0" x2="22.6604" y2="39.628" gradientUnits="userSpaceOnUse">
<stop stop-color="#D6D3C2" stop-opacity="0.2"/>
<stop offset="1" stop-color="#5C5C5C" stop-opacity="0.14"/>
</linearGradient>
<linearGradient id="paint1_linear_301_3428" x1="36" y1="0" x2="22.6604" y2="39.628" gradientUnits="userSpaceOnUse">
<stop stop-color="#D6D3C2" stop-opacity="0.2"/>
<stop offset="1" stop-color="#5C5C5C" stop-opacity="0.14"/>
</linearGradient>
<linearGradient id="paint2_linear_301_3428" x1="36" y1="0" x2="22.6604" y2="39.628" gradientUnits="userSpaceOnUse">
<stop stop-color="#D6D3C2" stop-opacity="0.2"/>
<stop offset="1" stop-color="#5C5C5C" stop-opacity="0.14"/>
</linearGradient>
<linearGradient id="paint3_linear_301_3428" x1="36" y1="0" x2="22.6604" y2="39.628" gradientUnits="userSpaceOnUse">
<stop stop-color="#999999"/>
<stop offset="1" stop-color="#141414"/>
</linearGradient>
</defs>
</svg>
