<svg width="64" height="64" viewBox="0 0 64 64" fill="none" xmlns="http://www.w3.org/2000/svg">
<mask id="mask0_301_3429" style="mask-type:alpha" maskUnits="userSpaceOnUse" x="15" y="14" width="34" height="36">
<path d="M47.6519 29.7852C49.4494 30.7519 49.4494 33.2481 47.6519 34.2148L18.9047 49.6758C17.1541 50.6173 15 49.3955 15 47.461L15 16.539C15 14.6045 17.1541 13.3827 18.9047 14.3242L47.6519 29.7852Z" fill="#C4C4C4"/>
</mask>
<g mask="url(#mask0_301_3429)">
<g filter="url(#filter0_i_301_3429)">
<path d="M15.9073 50L34 31.8505L16.2052 14C15.4953 14.454 15 15.2378 15 16.1888V48.032C15 48.8434 15.3605 49.533 15.9073 50Z" fill="url(#paint0_linear_301_3429)"/>
<path d="M15.9073 50L34 31.8505L16.2052 14C15.4953 14.454 15 15.2378 15 16.1888V48.032C15 48.8434 15.3605 49.533 15.9073 50Z" fill="black" fill-opacity="0.6"/>
</g>
<path d="M16.1708 15.1127L32.8563 31.8505L15.9744 48.7853C15.8692 48.5603 15.81 48.307 15.81 48.032V16.1888C15.81 15.7747 15.945 15.4072 16.1708 15.1127Z" stroke="url(#paint1_linear_301_3429)" stroke-width="1.62"/>
<g filter="url(#filter1_i_301_3429)">
<path d="M47.6669 29.9456C49.4444 30.8803 49.4444 33.2939 47.6669 34.2286L40.4955 38L34 31.843L40.1642 26L47.6669 29.9456Z" fill="url(#paint2_linear_301_3429)"/>
<path d="M47.6669 29.9456C49.4444 30.8803 49.4444 33.2939 47.6669 34.2286L40.4955 38L34 31.843L40.1642 26L47.6669 29.9456Z" fill="black" fill-opacity="0.6"/>
</g>
<path d="M47.2899 30.6625C48.49 31.2937 48.49 32.8805 47.2899 33.5117L40.6318 37.0131L35.1774 31.843L40.3005 26.9869L47.2899 30.6625Z" stroke="url(#paint3_linear_301_3429)" stroke-width="1.62"/>
<g filter="url(#filter2_i_301_3429)">
<path d="M40 38.2797L33.5654 32L16 49.3807C16.7724 50.0315 17.9277 50.2306 18.9442 49.6803L40 38.2797Z" fill="url(#paint4_linear_301_3429)"/>
<path d="M40 38.2797L33.5654 32L16 49.3807C16.7724 50.0315 17.9277 50.2306 18.9442 49.6803L40 38.2797Z" fill="black" fill-opacity="0.6"/>
</g>
<path d="M17.3735 49.1611L33.5693 33.1356L38.6471 38.0911L18.5585 48.968C18.1727 49.1769 17.758 49.2304 17.3735 49.1611Z" stroke="url(#paint5_linear_301_3429)" stroke-width="1.62"/>
<g filter="url(#filter3_i_301_3429)">
<path d="M16 14.4194L33.7323 32L40 25.871L18.7249 14.3288C17.8051 13.8298 16.7744 13.93 16 14.4194Z" fill="url(#paint6_linear_301_3429)"/>
<path d="M16 14.4194L33.7323 32L40 25.871L18.7249 14.3288C17.8051 13.8298 16.7744 13.93 16 14.4194Z" fill="black" fill-opacity="0.6"/>
</g>
<path d="M38.6487 26.0594L33.7362 30.8633L17.5476 14.8131C17.8127 14.8284 18.0816 14.9013 18.3387 15.0408L38.6487 26.0594Z" stroke="url(#paint7_linear_301_3429)" stroke-width="1.62"/>
</g>
<defs>
<filter id="filter0_i_301_3429" x="13.38" y="13.38" width="20.62" height="36.62" filterUnits="userSpaceOnUse" color-interpolation-filters="sRGB">
<feFlood flood-opacity="0" result="BackgroundImageFix"/>
<feBlend mode="normal" in="SourceGraphic" in2="BackgroundImageFix" result="shape"/>
<feColorMatrix in="SourceAlpha" type="matrix" values="0 0 0 0 0 0 0 0 0 0 0 0 0 0 0 0 0 0 127 0" result="hardAlpha"/>
<feOffset dx="-1.62" dy="-0.62"/>
<feGaussianBlur stdDeviation="2.12"/>
<feComposite in2="hardAlpha" operator="arithmetic" k2="-1" k3="1"/>
<feColorMatrix type="matrix" values="0 0 0 0 0.980392 0 0 0 0 0.980392 0 0 0 0 0.980392 0 0 0 0.22 0"/>
<feBlend mode="normal" in2="shape" result="effect1_innerShadow_301_3429"/>
</filter>
<filter id="filter1_i_301_3429" x="32.38" y="25.38" width="16.62" height="12.62" filterUnits="userSpaceOnUse" color-interpolation-filters="sRGB">
<feFlood flood-opacity="0" result="BackgroundImageFix"/>
<feBlend mode="normal" in="SourceGraphic" in2="BackgroundImageFix" result="shape"/>
<feColorMatrix in="SourceAlpha" type="matrix" values="0 0 0 0 0 0 0 0 0 0 0 0 0 0 0 0 0 0 127 0" result="hardAlpha"/>
<feOffset dx="-1.62" dy="-0.62"/>
<feGaussianBlur stdDeviation="2.12"/>
<feComposite in2="hardAlpha" operator="arithmetic" k2="-1" k3="1"/>
<feColorMatrix type="matrix" values="0 0 0 0 0.980392 0 0 0 0 0.980392 0 0 0 0 0.980392 0 0 0 0.22 0"/>
<feBlend mode="normal" in2="shape" result="effect1_innerShadow_301_3429"/>
</filter>
<filter id="filter2_i_301_3429" x="14.38" y="31.38" width="25.62" height="18.62" filterUnits="userSpaceOnUse" color-interpolation-filters="sRGB">
<feFlood flood-opacity="0" result="BackgroundImageFix"/>
<feBlend mode="normal" in="SourceGraphic" in2="BackgroundImageFix" result="shape"/>
<feColorMatrix in="SourceAlpha" type="matrix" values="0 0 0 0 0 0 0 0 0 0 0 0 0 0 0 0 0 0 127 0" result="hardAlpha"/>
<feOffset dx="-1.62" dy="-0.62"/>
<feGaussianBlur stdDeviation="2.12"/>
<feComposite in2="hardAlpha" operator="arithmetic" k2="-1" k3="1"/>
<feColorMatrix type="matrix" values="0 0 0 0 0.980392 0 0 0 0 0.980392 0 0 0 0 0.980392 0 0 0 0.22 0"/>
<feBlend mode="normal" in2="shape" result="effect1_innerShadow_301_3429"/>
</filter>
<filter id="filter3_i_301_3429" x="14.38" y="13.38" width="25.62" height="18.62" filterUnits="userSpaceOnUse" color-interpolation-filters="sRGB">
<feFlood flood-opacity="0" result="BackgroundImageFix"/>
<feBlend mode="normal" in="SourceGraphic" in2="BackgroundImageFix" result="shape"/>
<feColorMatrix in="SourceAlpha" type="matrix" values="0 0 0 0 0 0 0 0 0 0 0 0 0 0 0 0 0 0 127 0" result="hardAlpha"/>
<feOffset dx="-1.62" dy="-0.62"/>
<feGaussianBlur stdDeviation="2.12"/>
<feComposite in2="hardAlpha" operator="arithmetic" k2="-1" k3="1"/>
<feColorMatrix type="matrix" values="0 0 0 0 0.980392 0 0 0 0 0.980392 0 0 0 0 0.980392 0 0 0 0.22 0"/>
<feBlend mode="normal" in2="shape" result="effect1_innerShadow_301_3429"/>
</filter>
<linearGradient id="paint0_linear_301_3429" x1="34" y1="14" x2="10.4905" y2="46.7643" gradientUnits="userSpaceOnUse">
<stop stop-color="#D6D3C2" stop-opacity="0.2"/>
<stop offset="1" stop-color="#5C5C5C" stop-opacity="0.14"/>
</linearGradient>
<linearGradient id="paint1_linear_301_3429" x1="34" y1="14" x2="10.4905" y2="46.7643" gradientUnits="userSpaceOnUse">
<stop stop-color="#999999"/>
<stop offset="1" stop-color="#141414"/>
</linearGradient>
<linearGradient id="paint2_linear_301_3429" x1="49" y1="26" x2="44.4091" y2="41.1535" gradientUnits="userSpaceOnUse">
<stop stop-color="#D6D3C2" stop-opacity="0.2"/>
<stop offset="1" stop-color="#5C5C5C" stop-opacity="0.14"/>
</linearGradient>
<linearGradient id="paint3_linear_301_3429" x1="49" y1="26" x2="44.4091" y2="41.1535" gradientUnits="userSpaceOnUse">
<stop stop-color="#999999"/>
<stop offset="1" stop-color="#141414"/>
</linearGradient>
<linearGradient id="paint4_linear_301_3429" x1="40" y1="32" x2="33.4777" y2="54.9641" gradientUnits="userSpaceOnUse">
<stop stop-color="#D6D3C2" stop-opacity="0.2"/>
<stop offset="1" stop-color="#5C5C5C" stop-opacity="0.14"/>
</linearGradient>
<linearGradient id="paint5_linear_301_3429" x1="40" y1="32" x2="33.4777" y2="54.9641" gradientUnits="userSpaceOnUse">
<stop stop-color="#999999"/>
<stop offset="1" stop-color="#141414"/>
</linearGradient>
<linearGradient id="paint6_linear_301_3429" x1="40" y1="14" x2="33.4777" y2="36.9641" gradientUnits="userSpaceOnUse">
<stop stop-color="#D6D3C2" stop-opacity="0.2"/>
<stop offset="1" stop-color="#5C5C5C" stop-opacity="0.14"/>
</linearGradient>
<linearGradient id="paint7_linear_301_3429" x1="40" y1="14" x2="33.4777" y2="36.9641" gradientUnits="userSpaceOnUse">
<stop stop-color="#999999"/>
<stop offset="1" stop-color="#141414"/>
</linearGradient>
</defs>
</svg>
