<svg width="64" height="64" viewBox="0 0 64 64" fill="none" xmlns="http://www.w3.org/2000/svg">
<g id="Lock">
<g id="Lock_2" filter="url(#filter0_i_301_3221)">
<path id="Lock_3" fill-rule="evenodd" clip-rule="evenodd" d="M32.027 9.33325H31.9809C26.3135 9.33325 21.6978 13.8506 21.6707 19.4239V23.0053H42.3263V19.4693C42.3263 13.8799 37.7052 9.33325 32.027 9.33325ZM46.392 19.4693V23.7279C51.192 25.3839 54.6667 29.8346 54.6667 35.1173V46.5546C54.6667 53.2346 49.143 58.6666 42.3536 58.6666H42.275H33.179C32.057 58.6666 31.1463 57.7706 31.1463 56.6666C31.1463 55.5626 32.057 54.6666 33.179 54.6666H42.275C46.823 54.6666 50.5199 51.0293 50.5199 46.5546C50.5199 46.4571 50.5453 46.3688 50.5708 46.2804C50.5816 46.2432 50.5923 46.2059 50.6012 46.1679V35.1173C50.6012 30.6426 46.9016 27.0053 42.3536 27.0053H21.6465C17.0985 27.0053 13.3989 30.6426 13.3989 35.1173V46.1679C13.4076 46.2088 13.4187 46.2489 13.4299 46.289C13.4537 46.3745 13.4775 46.4602 13.4775 46.5546C13.4775 51.0293 17.1771 54.6666 21.7251 54.6666C22.8472 54.6666 23.7579 55.5626 23.7579 56.6666C23.7579 57.7706 22.8472 58.6666 21.7251 58.6666C21.7156 58.6666 21.7068 58.6653 21.698 58.6639C21.6892 58.6626 21.6804 58.6613 21.6709 58.6613C21.6668 58.6613 21.6628 58.6626 21.6587 58.6639C21.6546 58.6653 21.6506 58.6666 21.6465 58.6666C14.8571 58.6666 9.33337 53.2346 9.33337 46.5546V35.1173C9.33337 29.8346 12.8053 25.3839 17.6054 23.7279V19.4693C17.6406 11.6346 24.0804 5.33325 31.9729 5.33325H32.0353C39.9468 5.33325 46.392 11.6746 46.392 19.4693ZM34.0323 37.8738V43.7964C34.0323 44.9004 33.1216 45.7964 31.9996 45.7964C30.8775 45.7964 29.9668 44.9004 29.9668 43.7964V37.8738C29.9668 36.7698 30.8775 35.8738 31.9996 35.8738C33.1216 35.8738 34.0323 36.7698 34.0323 37.8738Z" fill="url(#paint0_linear_301_3221)"/>
</g>
</g>
<defs>
<filter id="filter0_i_301_3221" x="9.33337" y="5.33325" width="45.3333" height="53.3333" filterUnits="userSpaceOnUse" color-interpolation-filters="sRGB">
<feFlood flood-opacity="0" result="BackgroundImageFix"/>
<feBlend mode="normal" in="SourceGraphic" in2="BackgroundImageFix" result="shape"/>
<feColorMatrix in="SourceAlpha" type="matrix" values="0 0 0 0 0 0 0 0 0 0 0 0 0 0 0 0 0 0 127 0" result="hardAlpha"/>
<feOffset dx="-1.62" dy="1.62"/>
<feComposite in2="hardAlpha" operator="arithmetic" k2="-1" k3="1"/>
<feColorMatrix type="matrix" values="0 0 0 0 0.68 0 0 0 0 0.656 0 0 0 0 0.52 0 0 0 1 0"/>
<feBlend mode="normal" in2="shape" result="effect1_innerShadow_301_3221"/>
</filter>
<linearGradient id="paint0_linear_301_3221" x1="9.33337" y1="58.6666" x2="66.912" y2="34.4587" gradientUnits="userSpaceOnUse">
<stop stop-color="#ADA785"/>
<stop offset="1" stop-color="#D6D3C2"/>
</linearGradient>
</defs>
</svg>
