<svg width="64" height="64" viewBox="0 0 64 64" fill="none" xmlns="http://www.w3.org/2000/svg">
<g id="Password">
<g id="Password_2" filter="url(#filter0_i_301_3210)">
<path id="Password_3" fill-rule="evenodd" clip-rule="evenodd" d="M20.4412 5.33313H43.5585C52.5959 5.33313 58.6679 11.6745 58.6679 21.1091V42.8905C58.6679 52.3251 52.5932 58.6665 43.5559 58.6665H29.2092C28.1052 58.6665 27.2092 57.7705 27.2092 56.6665C27.2092 55.5625 28.1052 54.6665 29.2092 54.6665H43.5559C50.3052 54.6665 54.6679 50.0451 54.6679 42.8905V21.1091C54.6679 13.9545 50.3052 9.33313 43.5585 9.33313H20.4412C13.6945 9.33313 9.33453 13.9545 9.33453 21.1091V42.8905C9.33453 50.0451 13.6945 54.6665 20.4412 54.6665C21.5452 54.6665 22.4412 55.5625 22.4412 56.6665C22.4412 57.7705 21.5452 58.6665 20.4412 58.6665C11.4039 58.6665 5.33453 52.3251 5.33453 42.8905V21.1091C5.33453 11.6745 11.4039 5.33313 20.4412 5.33313ZM17.2466 29.1531C17.6999 28.1451 18.8786 27.6945 19.8919 28.1505C20.8999 28.6011 21.3479 29.7851 20.8946 30.7931C20.7239 31.1745 20.6386 31.5798 20.6386 31.9985C20.6386 33.6198 21.9559 34.9371 23.5746 34.9371C25.1959 34.9371 26.5132 33.6198 26.5132 31.9985C26.5132 30.3798 25.1959 29.0625 23.5746 29.0625C22.4706 29.0625 21.5746 28.1665 21.5746 27.0625C21.5746 25.9585 22.4706 25.0625 23.5746 25.0625C26.7026 25.0625 29.3186 27.1531 30.1826 29.9985H45.3612C46.4652 29.9985 47.3612 30.8945 47.3612 31.9985V36.9371C47.3612 38.0411 46.4652 38.9371 45.3612 38.9371C44.2572 38.9371 43.3612 38.0411 43.3612 36.9371V33.9985H39.8172V36.9371C39.8172 38.0411 38.9212 38.9371 37.8172 38.9371C36.7132 38.9371 35.8172 38.0411 35.8172 36.9371V33.9985H30.1826C29.3186 36.8465 26.7026 38.9371 23.5746 38.9371C19.7506 38.9371 16.6386 35.8251 16.6386 31.9985C16.6386 31.0091 16.8412 30.0545 17.2466 29.1531Z" fill="url(#paint0_linear_301_3210)"/>
</g>
</g>
<defs>
<filter id="filter0_i_301_3210" x="5.33453" y="5.33313" width="53.3333" height="53.3334" filterUnits="userSpaceOnUse" color-interpolation-filters="sRGB">
<feFlood flood-opacity="0" result="BackgroundImageFix"/>
<feBlend mode="normal" in="SourceGraphic" in2="BackgroundImageFix" result="shape"/>
<feColorMatrix in="SourceAlpha" type="matrix" values="0 0 0 0 0 0 0 0 0 0 0 0 0 0 0 0 0 0 127 0" result="hardAlpha"/>
<feOffset dx="-1.62" dy="1.62"/>
<feComposite in2="hardAlpha" operator="arithmetic" k2="-1" k3="1"/>
<feColorMatrix type="matrix" values="0 0 0 0 0.68 0 0 0 0 0.656 0 0 0 0 0.52 0 0 0 1 0"/>
<feBlend mode="normal" in2="shape" result="effect1_innerShadow_301_3210"/>
</filter>
<linearGradient id="paint0_linear_301_3210" x1="5.33453" y1="58.6665" x2="69.3791" y2="26.9883" gradientUnits="userSpaceOnUse">
<stop stop-color="#ADA785"/>
<stop offset="1" stop-color="#D6D3C2"/>
</linearGradient>
</defs>
</svg>
