<svg width="64" height="64" viewBox="0 0 64 64" fill="none" xmlns="http://www.w3.org/2000/svg">
<g id="Shield Done">
<g id="Shield Done_2" filter="url(#filter0_i_301_3199)">
<path id="Shield Done_3" fill-rule="evenodd" clip-rule="evenodd" d="M33.641 5.60137L51.3545 11.6465C53.3358 12.3239 54.6667 14.1478 54.6667 16.1904V33.8993C54.6667 39.2672 52.6717 44.4644 49.0522 48.5203C47.3947 50.3789 45.268 51.9762 42.5513 53.4055L32.977 58.432C32.6778 58.5867 32.3485 58.6667 32.0165 58.6667C31.6872 58.6667 31.3579 58.5867 31.0588 58.432L21.4653 53.4028C18.7431 51.9709 16.6136 50.3736 14.9589 48.523C11.3339 44.4617 9.33337 39.2619 9.33337 33.8887C9.33337 32.806 10.2389 31.926 11.3531 31.926C12.4672 31.926 13.3728 32.806 13.3728 33.8887C13.3728 38.3205 15.0192 42.6031 18.0076 45.9524C19.3385 47.443 21.0975 48.7496 23.3834 49.9496L32.0165 54.4748L40.6304 49.9523C42.9108 48.755 44.6698 47.4483 46.0034 45.9524C48.9863 42.6058 50.6301 38.3286 50.6301 33.8993V16.1904C50.6301 15.8118 50.3831 15.4758 50.0181 15.3505L32.3046 9.30527C32.1098 9.23861 31.893 9.23861 31.6954 9.30527L13.9847 15.3505C13.6197 15.4758 13.3728 15.8118 13.3728 16.1904V21.257C13.3728 22.3423 12.4672 23.2223 11.3531 23.2223C10.2389 23.2223 9.33337 22.3423 9.33337 21.257V16.1904C9.33337 14.1478 10.667 12.3239 12.6483 11.6465L30.359 5.60137C31.4183 5.24404 32.5845 5.24404 33.641 5.60137ZM30.0966 38.1801C29.5587 38.1801 29.0483 37.9721 28.6696 37.6041L23.5765 32.6549C22.7889 31.8869 22.7889 30.6496 23.5765 29.8816C24.3668 29.1136 25.6428 29.1136 26.4304 29.8816L30.0966 33.4415L39.1577 24.6391C39.9453 23.8738 41.2241 23.8738 42.0117 24.6391C42.7992 25.4044 42.7992 26.647 42.0117 27.4124L31.5235 37.6041C31.1448 37.9721 30.6317 38.1801 30.0966 38.1801Z" fill="url(#paint0_linear_301_3199)"/>
</g>
</g>
<defs>
<filter id="filter0_i_301_3199" x="9.33337" y="5.33337" width="45.3333" height="53.3334" filterUnits="userSpaceOnUse" color-interpolation-filters="sRGB">
<feFlood flood-opacity="0" result="BackgroundImageFix"/>
<feBlend mode="normal" in="SourceGraphic" in2="BackgroundImageFix" result="shape"/>
<feColorMatrix in="SourceAlpha" type="matrix" values="0 0 0 0 0 0 0 0 0 0 0 0 0 0 0 0 0 0 127 0" result="hardAlpha"/>
<feOffset dx="-1.62" dy="1.62"/>
<feComposite in2="hardAlpha" operator="arithmetic" k2="-1" k3="1"/>
<feColorMatrix type="matrix" values="0 0 0 0 0.68 0 0 0 0 0.656 0 0 0 0 0.52 0 0 0 1 0"/>
<feBlend mode="normal" in2="shape" result="effect1_innerShadow_301_3199"/>
</filter>
<linearGradient id="paint0_linear_301_3199" x1="9.33337" y1="58.6667" x2="66.912" y2="34.4588" gradientUnits="userSpaceOnUse">
<stop stop-color="#ADA785"/>
<stop offset="1" stop-color="#D6D3C2"/>
</linearGradient>
</defs>
</svg>
