<svg width="54" height="54" viewBox="0 0 54 54" fill="none" xmlns="http://www.w3.org/2000/svg">
<g filter="url(#filter0_i_301_2934)">
<path fill-rule="evenodd" clip-rule="evenodd" d="M46.7376 14.1607C49.5422 14.1606 52.0701 12.4736 53.1412 9.88734C54.2123 7.30103 53.6151 4.32555 51.6286 2.35016C49.6421 0.374756 46.658 -0.21092 44.0696 0.86658C41.4813 1.94408 39.7992 4.47222 39.8087 7.27061C39.8217 11.0797 42.9201 14.1607 46.7376 14.1607ZM46.7374 4.28397C48.3904 4.28397 49.7305 5.62106 49.7305 7.27044C49.7305 8.91982 48.3904 10.2569 46.7374 10.2569C45.0844 10.2569 43.7443 8.91982 43.7443 7.27044C43.7443 5.62106 45.0844 4.28397 46.7374 4.28397ZM4.26914 37.6523C4.26914 45.4594 8.58199 49.7392 16.3828 49.7392C17.4708 49.7519 18.3498 50.6289 18.3625 51.7145C18.3496 52.7963 17.467 53.6664 16.3828 53.6663C6.48448 53.6663 0.333374 47.5288 0.333374 37.6523V18.4401C0.333374 8.5401 6.48448 2.40256 16.3828 2.40256H33.7285C34.8126 2.41544 35.6846 3.29605 35.6846 4.37786C35.6846 4.89961 35.4753 5.39965 35.1033 5.76636C34.7314 6.13308 34.2278 6.33593 33.7049 6.32965H16.3828C8.58199 6.32965 4.26914 10.633 4.26914 18.4401V37.6523ZM31.9844 32.5264C31.6542 32.9331 31.1834 33.2016 30.6646 33.2789C30.1483 33.3313 29.6321 33.1793 29.227 32.8557L21.9918 27.1884L15.4872 35.6305C15.177 36.0515 14.7106 36.3309 14.1923 36.406C13.674 36.4812 13.1472 36.3458 12.7298 36.0303C11.8779 35.3638 11.7204 34.1382 12.3763 33.2789L20.0828 23.2613C20.4043 22.846 20.8782 22.5754 21.4 22.5092C21.9217 22.443 22.4484 22.5867 22.8638 22.9086L30.099 28.5758L36.4622 20.463C37.1607 19.8004 38.2388 19.7441 39.0027 20.3304C39.7667 20.9168 39.9887 21.971 39.526 22.8145L31.9844 32.5264ZM49.825 18.4402C48.7447 18.4402 47.8689 19.3141 47.8689 20.392V37.6524C47.7982 45.4595 43.4854 49.7394 35.6846 49.7394H27.813C26.725 49.7521 25.8461 50.629 25.8334 51.7147C25.8463 52.7964 26.7288 53.6665 27.813 53.6665H35.6846C45.5829 53.6665 51.7576 47.5289 51.7576 37.6524V20.392C51.7577 19.3232 50.8962 18.4531 49.825 18.4402Z" fill="url(#paint0_linear_301_2934)"/>
</g>
<defs>
<filter id="filter0_i_301_2934" x="0.333374" y="0.333344" width="53.3333" height="53.3331" filterUnits="userSpaceOnUse" color-interpolation-filters="sRGB">
<feFlood flood-opacity="0" result="BackgroundImageFix"/>
<feBlend mode="normal" in="SourceGraphic" in2="BackgroundImageFix" result="shape"/>
<feColorMatrix in="SourceAlpha" type="matrix" values="0 0 0 0 0 0 0 0 0 0 0 0 0 0 0 0 0 0 127 0" result="hardAlpha"/>
<feOffset dx="-1.62" dy="1.62"/>
<feComposite in2="hardAlpha" operator="arithmetic" k2="-1" k3="1"/>
<feColorMatrix type="matrix" values="0 0 0 0 0.68 0 0 0 0 0.656 0 0 0 0 0.52 0 0 0 1 0"/>
<feBlend mode="normal" in2="shape" result="effect1_innerShadow_301_2934"/>
</filter>
<linearGradient id="paint0_linear_301_2934" x1="0.333375" y1="53.6665" x2="64.3777" y2="21.9884" gradientUnits="userSpaceOnUse">
<stop stop-color="#ADA785"/>
<stop offset="1" stop-color="#D6D3C2"/>
</linearGradient>
</defs>
</svg>
