<svg width="54" height="54" viewBox="0 0 54 54" fill="none" xmlns="http://www.w3.org/2000/svg">
<g filter="url(#filter0_i_301_2974)">
<path fill-rule="evenodd" clip-rule="evenodd" d="M53.6666 23.2005C53.6666 24.3275 52.7531 25.241 51.6262 25.241H51.6027C51.0596 25.2411 50.5393 25.0222 50.1597 24.6337C49.78 24.2453 49.5731 23.7201 49.5857 23.1771V17.0088C49.5857 8.89388 45.1061 4.41426 36.9912 4.41426H17.0088C8.8704 4.41426 4.41423 8.89388 4.41423 17.0088V37.0147C4.41423 45.1296 8.89385 49.5858 17.0088 49.5858H36.9912C45.1296 49.5858 49.5857 45.1061 49.5857 37.0147C49.5857 35.8878 50.4993 34.9742 51.6262 34.9742C52.7531 34.9742 53.6666 35.8878 53.6666 37.0147C53.6666 47.2873 47.2873 53.6667 37.0146 53.6667H17.0088C6.71267 53.6667 0.333313 47.2873 0.333313 37.0147V17.0088C0.333313 6.71271 6.71267 0.333344 17.0088 0.333344H36.9912C47.2404 0.333344 53.6666 6.71271 53.6666 17.0088V23.2005ZM13.5611 39.5009V22.5909V22.4267C13.5793 21.8874 13.8129 21.3779 14.2096 21.0121C14.6062 20.6463 15.1329 20.4546 15.6719 20.48C16.2132 20.4984 16.725 20.7312 17.0945 21.1271C17.464 21.523 17.661 22.0496 17.642 22.5909V39.6416C17.6032 40.7685 16.6581 41.6505 15.5312 41.6117C14.4043 41.5728 13.5223 40.6278 13.5611 39.5009ZM25.0534 14.5224V39.5239C25.0534 40.6508 25.9669 41.5643 27.0938 41.5643C28.2207 41.5643 29.1343 40.6508 29.1343 39.5239V14.5224C29.1343 13.3955 28.2207 12.482 27.0938 12.482C25.9669 12.482 25.0534 13.3955 25.0534 14.5224ZM36.358 39.5005V31.5263C36.358 30.3994 37.2716 29.4858 38.3985 29.4858C39.5254 29.4858 40.4389 30.3994 40.4389 31.5263V39.5005C40.4389 40.6274 39.5254 41.541 38.3985 41.541C37.2716 41.541 36.358 40.6274 36.358 39.5005Z" fill="url(#paint0_linear_301_2974)"/>
</g>
<defs>
<filter id="filter0_i_301_2974" x="0.333313" y="0.333344" width="53.3333" height="53.3333" filterUnits="userSpaceOnUse" color-interpolation-filters="sRGB">
<feFlood flood-opacity="0" result="BackgroundImageFix"/>
<feBlend mode="normal" in="SourceGraphic" in2="BackgroundImageFix" result="shape"/>
<feColorMatrix in="SourceAlpha" type="matrix" values="0 0 0 0 0 0 0 0 0 0 0 0 0 0 0 0 0 0 127 0" result="hardAlpha"/>
<feOffset dx="-1.62" dy="1.62"/>
<feComposite in2="hardAlpha" operator="arithmetic" k2="-1" k3="1"/>
<feColorMatrix type="matrix" values="0 0 0 0 0.68 0 0 0 0 0.656 0 0 0 0 0.52 0 0 0 1 0"/>
<feBlend mode="normal" in2="shape" result="effect1_innerShadow_301_2974"/>
</filter>
<linearGradient id="paint0_linear_301_2974" x1="0.333314" y1="53.6667" x2="64.3779" y2="21.9886" gradientUnits="userSpaceOnUse">
<stop stop-color="#ADA785"/>
<stop offset="1" stop-color="#D6D3C2"/>
</linearGradient>
</defs>
</svg>
