<svg width="36" height="36" viewBox="0 0 36 36" fill="none" xmlns="http://www.w3.org/2000/svg">
<g id="Close">
<g id="Close_2" filter="url(#filter0_i_301_2925)">
<path id="Close_3" fill-rule="evenodd" clip-rule="evenodd" d="M25.4378 25.141C24.7119 25.8635 23.539 25.8783 22.7958 25.1706L22.702 25.0793L10.8994 13.2949C10.1784 12.5305 10.1636 11.3419 10.8673 10.5627C11.5883 9.82543 12.7686 9.81064 13.5069 10.5307C13.5143 10.5356 13.5192 10.5405 13.5266 10.5479L18.1316 15.1493L22.3217 10.9622C23.0748 10.2446 24.2625 10.252 25.0082 10.9795C25.1415 11.1126 25.2551 11.263 25.3415 11.4307C25.7687 12.1729 25.6452 13.105 25.0403 13.7116L20.8674 17.8765L25.4057 22.4112C26.1711 23.1337 26.2008 24.3396 25.4748 25.1015C25.4692 25.1099 25.462 25.1168 25.4545 25.1238C25.4489 25.1291 25.4431 25.1346 25.4378 25.141ZM10.5935 22.7393L12.2824 21.0527C13.0454 20.34 14.2405 20.3844 14.9541 21.1439C15.6652 21.9083 15.6232 23.1018 14.8602 23.812L13.1787 25.4912C12.4355 26.1866 11.275 26.1669 10.554 25.4468L10.4997 25.4074C9.79847 24.6405 9.84045 23.4544 10.5935 22.7393Z" fill="#ADA785"/>
</g>
</g>
<defs>
<filter id="filter0_i_301_2925" x="10.0001" y="10.0001" width="16.0001" height="16.0001" filterUnits="userSpaceOnUse" color-interpolation-filters="sRGB">
<feFlood flood-opacity="0" result="BackgroundImageFix"/>
<feBlend mode="normal" in="SourceGraphic" in2="BackgroundImageFix" result="shape"/>
<feColorMatrix in="SourceAlpha" type="matrix" values="0 0 0 0 0 0 0 0 0 0 0 0 0 0 0 0 0 0 127 0" result="hardAlpha"/>
<feOffset dx="-1.62" dy="1.62"/>
<feComposite in2="hardAlpha" operator="arithmetic" k2="-1" k3="1"/>
<feColorMatrix type="matrix" values="0 0 0 0 0.68 0 0 0 0 0.656 0 0 0 0 0.52 0 0 0 1 0"/>
<feBlend mode="normal" in2="shape" result="effect1_innerShadow_301_2925"/>
</filter>
</defs>
</svg>
